<svg xmlns="http://www.w3.org/2000/svg" xmlns:xlink="http://www.w3.org/1999/xlink"  height="100" width="1440" viewBox="0 0 1440 100">
  <defs>
    <clipPath id="clip-path">
      <rect width="1440" height="100" fill="none"/>
    </clipPath>
  </defs>
  <g id="quote" clip-path="url(#clip-path)">
    <path id="Path_3" data-name="Path 3" d="M.5,0V60.185" transform="translate(720)" fill="none" stroke="#f88920" stroke-miterlimit="10" stroke-width="2"/>
    <path id="_" data-name="“" d="M30.717,30.154a8.575,8.575,0,0,1-6.34-2.371c-1.6-1.643-2.405-4.018-2.405-7.058A16.83,16.83,0,0,1,23.8,13.06,21.512,21.512,0,0,1,28.284,7.2,43.677,43.677,0,0,1,39.352,0c.242,0,.6.417.643.679.017.1-.017.172-.1.2-5.2,3.594-8.308,9-8.308,14.473a8.267,8.267,0,0,1,5.575,2.207,6.761,6.761,0,0,1,1.968,4.921C39.134,26.926,35.594,30.154,30.717,30.154Zm-22.082,0C3.148,30.154,0,26.717,0,20.724,0,15.7,2.11,11.145,6.272,7.2A43.129,43.129,0,0,1,17.381,0c.163,0,.493.414.535.67.018.108-.016.18-.1.207-5.2,3.594-8.308,9-8.308,14.473a8.265,8.265,0,0,1,5.575,2.207,6.761,6.761,0,0,1,1.967,4.921C17.052,26.926,13.513,30.154,8.635,30.154Z" transform="translate(700 70.216)" fill="#f88920"/>
  </g>
</svg>
